<svg version="1.1" id="Layer_1" xmlns="http://www.w3.org/2000/svg" xmlns:xlink="http://www.w3.org/1999/xlink" x="0px" y="0px"
	 width="100%" viewBox="0 0 328 294" enable-background="new 0 0 328 294" xml:space="preserve">
<path fill="#FFFFFF" opacity="1.000000" stroke="none" 
	d="
M11.000000,295.000000 
	C7.667866,295.000000 4.335732,295.000000 1.002698,295.000000 
	C1.001799,197.036453 1.001799,99.072899 1.001799,1.054677 
	C110.257538,1.054677 219.515106,1.054677 328.886353,1.054677 
	C328.886353,98.888847 328.886353,196.777878 328.886353,295.000000 
	C232.646027,295.000000 136.291672,295.000000 39.441624,294.702148 
	C38.920135,294.206604 38.894341,294.008911 38.952248,293.459625 
	C74.051025,201.936554 109.066101,110.765053 144.247437,19.160643 
	C135.811462,19.160643 128.311493,19.358383 120.830284,19.069899 
	C117.524948,18.942442 116.213432,20.289743 115.128159,23.119030 
	C80.515640,113.352913 45.838951,203.562195 11.106375,294.078186 
	C11.027199,294.587494 11.013599,294.793732 11.000000,295.000000 
M178.787842,204.773254 
	C178.787842,215.732925 178.787842,226.692612 178.787842,237.715759 
	C179.329132,237.520187 180.107300,237.291275 180.842758,236.965897 
	C228.254745,215.989441 275.650085,194.975204 323.105042,174.096512 
	C325.927490,172.854721 326.665405,171.266312 326.578857,168.447723 
	C326.405029,162.786682 326.285614,157.102310 326.617767,151.455475 
	C326.817688,148.056503 325.605408,146.479431 322.570862,145.143814 
	C276.031677,124.660263 229.544342,104.058777 183.040314,83.495270 
	C181.565750,82.843254 180.041641,82.303284 177.968918,81.485512 
	C177.968918,91.352104 178.161514,100.634895 177.869308,109.902397 
	C177.760178,113.363441 178.950378,114.776909 182.063461,115.974739 
	C207.958557,125.938492 233.787064,136.075516 259.626099,146.184631 
	C270.414917,150.405594 281.180573,154.685669 292.850159,159.291473 
	C254.417953,174.563583 216.957565,189.449509 178.787842,204.773254 
z"/>
<path fill="#FFC0C0" opacity="1.000000" stroke="none" 
	d="
M38.868546,293.811188 
	C38.894341,294.008911 38.920135,294.206604 38.972965,294.702148 
	C29.979103,295.000000 20.958208,295.000000 11.468657,295.000000 
	C11.013599,294.793732 11.027199,294.587494 11.559286,294.147949 
	C21.008032,293.880188 29.938290,293.845673 38.868546,293.811188 
z"/>
<path fill="#FF0202" opacity="1.000000" stroke="none" 
	d="
M179.142517,204.554352 
	C216.957565,189.449509 254.417953,174.563583 292.850159,159.291473 
	C281.180573,154.685669 270.414917,150.405594 259.626099,146.184631 
	C233.787064,136.075516 207.958557,125.938492 182.063461,115.974739 
	C178.950378,114.776909 177.760178,113.363441 177.869308,109.902397 
	C178.161514,100.634895 177.968918,91.352104 177.968918,81.485512 
	C180.041641,82.303284 181.565750,82.843254 183.040314,83.495270 
	C229.544342,104.058777 276.031677,124.660263 322.570862,145.143814 
	C325.605408,146.479431 326.817688,148.056503 326.617767,151.455475 
	C326.285614,157.102310 326.405029,162.786682 326.578857,168.447723 
	C326.665405,171.266312 325.927490,172.854721 323.105042,174.096512 
	C275.650085,194.975204 228.254745,215.989441 180.842758,236.965897 
	C180.107300,237.291275 179.329132,237.520187 178.787842,237.715759 
	C178.787842,226.692612 178.787842,215.732925 179.142517,204.554352 
z"/>
<path fill="#FF0303" opacity="1.000000" stroke="none" 
	d="
M38.952248,293.459625 
	C29.938290,293.845673 21.008032,293.880188 11.624864,293.844910 
	C45.838951,203.562195 80.515640,113.352913 115.128159,23.119030 
	C116.213432,20.289743 117.524948,18.942442 120.830284,19.069899 
	C128.311493,19.358383 135.811462,19.160643 144.247437,19.160643 
	C109.066101,110.765053 74.051025,201.936554 38.952248,293.459625 
z"/>
</svg>