<svg version="1.1" id="Layer_1" xmlns="http://www.w3.org/2000/svg" xmlns:xlink="http://www.w3.org/1999/xlink" x="0px" y="0px"
	 width="100%" viewBox="0 0 298 318" enable-background="new 0 0 298 318" xml:space="preserve">
<path fill="rgb(24, 20, 20)" opacity="1.000000" stroke="none" 
	d="
M157.000000,319.000000 
	C104.666695,319.000000 52.833382,319.000000 1.000056,319.000000 
	C1.000037,213.000076 1.000037,107.000153 1.000019,1.000169 
	C100.333214,1.000113 199.666428,1.000113 298.999725,1.000057 
	C298.999817,106.999825 298.999817,212.999649 298.999908,318.999756 
	C251.833328,319.000000 204.666672,319.000000 157.000000,319.000000 
M295.062469,255.529022 
	C295.062469,251.745834 295.062469,247.962646 295.062469,244.179047 
	C219.596710,215.061707 144.565430,186.112000 70.796768,157.649460 
	C144.876801,128.642487 219.993027,99.229790 294.901886,69.898285 
	C294.901886,47.324348 294.901886,25.368441 294.901886,3.038636 
	C293.588257,3.541390 292.516205,3.895246 291.490143,4.352433 
	C197.389389,46.282040 103.299042,88.235039 9.161427,130.081741 
	C6.338233,131.336716 5.684517,132.921036 5.709363,135.733444 
	C5.830079,149.397614 5.955633,163.067780 5.645677,176.725983 
	C5.554050,180.763519 6.969352,182.449402 10.492925,184.017090 
	C91.256950,219.950104 171.963684,256.011871 252.681412,292.048981 
	C266.607880,298.266541 280.535858,304.480774 295.062469,310.964050 
	C295.062469,292.390228 295.062469,274.454468 295.062469,255.529022 
z"/>
<path fill="#FF0101" opacity="1.000000" stroke="none" 
	d="
M295.062469,256.023865 
	C295.062469,274.454468 295.062469,292.390228 295.062469,310.964050 
	C280.535858,304.480774 266.607880,298.266541 252.681412,292.048981 
	C171.963684,256.011871 91.256950,219.950104 10.492925,184.017090 
	C6.969352,182.449402 5.554050,180.763519 5.645677,176.725983 
	C5.955633,163.067780 5.830079,149.397614 5.709363,135.733444 
	C5.684517,132.921036 6.338233,131.336716 9.161427,130.081741 
	C103.299042,88.235039 197.389389,46.282040 291.490143,4.352433 
	C292.516205,3.895246 293.588257,3.541390 294.901886,3.038636 
	C294.901886,25.368441 294.901886,47.324348 294.901886,69.898285 
	C219.993027,99.229790 144.876801,128.642487 70.796768,157.649460 
	C144.565430,186.112000 219.596710,215.061707 295.062469,244.179047 
	C295.062469,247.962646 295.062469,251.745834 295.062469,256.023865 
z"/>
</svg>